<svg width="2827" height="762" xmlns="http://www.w3.org/2000/svg" xmlns:xlink="http://www.w3.org/1999/xlink" xml:space="preserve" overflow="hidden"><defs><clipPath id="clip0"><rect x="20" y="990" width="2827" height="762"/></clipPath></defs><g clip-path="url(#clip0)" transform="translate(-20 -990)"><path d="M19.9999 1276.11C19.9999 1263.9 29.8988 1254 42.1097 1254L2646.89 1254C2659.1 1254 2669 1263.9 2669 1276.11L2669 1541.89C2669 1554.1 2659.1 1564 2646.89 1564L42.1097 1564C29.8988 1564 19.9999 1554.1 19.9999 1541.89Z" fill="#4A71A0" fill-rule="evenodd"/><path d="M45.5985 3.32415C40.6005 8.70322 46.062 24.2941 42.4838 36.2707 34.2472 44.1396 7.81212 48.3572 3.04787 57.5789-3.25148 65.2072 1.69443 78.7179 4.6875 82.0409 4.71921 85.3641 3.92927 90.5254 13.8987 91.6011 23.8682 92.677 53.5023 91.5562 64.5039 88.4957 78.4667 82.5013 87.5987 87.3219 97.6756 83.8012 101.622 80.3497 100.781 83.0194 101.868 70.8921 103.485 52.6728 103.266 15.8304 101.868 3.99639 90.2218-6.0772 86.2643 6.35796 72.472 3.99655 59.7774 5.74292 50.5966-2.05492 45.5985 3.32415Z" stroke="#352011" stroke-width="9.16667" stroke-linecap="round" stroke-linejoin="round" stroke-miterlimit="10" fill="#632D09" fill-rule="evenodd" transform="matrix(-1 0 0 1 2644.5 1457.5)"/><path d="M2544.5 1528.5 2571.55 1533.21C2588.75 1539.27 2633.63 1548.02 2639.5 1533.89" stroke="#352011" stroke-width="9.16667" stroke-miterlimit="8" fill="none" fill-rule="evenodd"/><path d="M2439.66 1459.82C2434.71 1465.2 2440.11 1480.79 2436.57 1492.77 2428.41 1500.64 2402.24 1504.86 2397.52 1514.08 2391.28 1521.71 2396.18 1535.22 2399.14 1538.54 2399.17 1541.86 2398.39 1547.03 2408.26 1548.1 2418.14 1549.18 2447.48 1548.06 2458.38 1545 2472.2 1539 2481.25 1543.82 2491.23 1540.3 2495.14 1536.85 2494.3 1539.52 2495.38 1527.39 2496.98 1509.17 2496.76 1472.33 2495.38 1460.5 2483.85 1450.42 2479.93 1462.86 2466.27 1460.5 2453.7 1462.24 2444.61 1454.45 2439.66 1459.82Z" stroke="#352011" stroke-width="9.16667" stroke-linecap="round" stroke-linejoin="round" stroke-miterlimit="10" fill="#632D09" fill-rule="evenodd"/><path d="M0 0 22.7817 3.98694C37.2629 9.11322 75.0551 16.5178 80.0001 4.55668" stroke="#352011" stroke-width="9.16667" stroke-miterlimit="8" fill="none" fill-rule="evenodd" transform="matrix(-1 0 0 1 2480.5 1528.5)"/><path d="M2485.32 1286.5C2467.64 1290.58 2450.04 1296.87 2437.39 1303.82 2424.73 1310.78 2417.79 1321.8 2409.39 1328.24 2400.98 1334.69 2385.18 1344.2 2363.5 1362.89 2363.67 1377.33 2385.42 1404.17 2398.17 1416.91 2406.59 1412.65 2431.99 1406.29 2443.55 1401.11 2450.7 1421.15 2440.16 1433.46 2445.33 1457.42 2462.55 1458.58 2508.24 1459.7 2542.22 1455.71 2544.34 1421.92 2533.55 1316.19 2535.28 1316.05 2530.86 1282.76 2501.97 1296.35 2485.32 1286.5Z" stroke="#2F528F" stroke-width="9.16667" stroke-miterlimit="8" fill="#9DC3E6" fill-rule="evenodd"/><path d="M2572.87 1285.26C2551.88 1290.95 2527.46 1329.55 2510.65 1359.68 2512.63 1390.5 2506.24 1447.82 2516.74 1459.35 2536.86 1461.01 2584.64 1467.79 2598.07 1459.35 2612.2 1449.26 2593.68 1394.46 2594.26 1379.11 2603.59 1376.88 2622.32 1402.87 2629.37 1393.95 2636.43 1385.02 2648.23 1355.37 2636.59 1325.56 2629.14 1306.92 2593.86 1279.58 2572.87 1285.26Z" stroke="#2F528F" stroke-width="9.16667" stroke-linecap="round" stroke-linejoin="round" stroke-miterlimit="10" fill="#9DC3E6" fill-rule="evenodd"/><path d="M2615.5 1311.86C2606.3 1293.15 2594.71 1295.08 2574.6 1294.5 2558.58 1312.63 2531.66 1403.08 2524.5 1433.36 2533.7 1434.32 2550.4 1439.92 2564.38 1433.36 2580.22 1406.94 2609.37 1332.49 2615.5 1311.86Z" stroke="#7F6000" stroke-width="9.16667" stroke-miterlimit="8" fill="#FFFF00" fill-rule="evenodd"/><path d="M70.9998 15.2794C63.82-1.18835 54.779 0.509315 39.0899 0 26.5919 15.9585 5.58425 95.5815 0 122.236 7.17976 123.084 20.2097 128.008 31.1123 122.236 43.4774 98.9768 66.2133 33.4451 70.9998 15.2794Z" stroke="#7F6000" stroke-width="9.16667" stroke-miterlimit="8" fill="#FFFF00" fill-rule="evenodd" transform="matrix(-1 0 0 1 2501.5 1310.5)"/><path d="M2580.02 1447.18C2596.97 1438.88 2601.21 1446.95 2580.98 1426.86 2547.67 1427.53 2489.8 1430.26 2455.05 1424.22 2428.18 1447.88 2444.76 1439.55 2460.27 1446.96 2491.59 1451.09 2560.43 1457.02 2580.02 1447.18Z" stroke="#7F6000" stroke-width="9.16667" stroke-miterlimit="8" fill="#FFFF00" fill-rule="evenodd"/><path d="M2517.09 1356.72C2492.4 1352.65 2474.88 1363.23 2465.42 1363.17 2455.96 1363.11 2458.93 1362.98 2460.34 1356.39 2461.75 1349.8 2478.32 1324.18 2471.63 1323.05 2464.06 1322.16 2425.55 1353.76 2422.5 1343.96 2422.52 1327.71 2444.26 1277.54 2453.34 1264.25 2462.43 1250.97 2477 1264.25 2477 1264.25 2493.17 1264.45 2533.77 1265.83 2550.33 1265.43 2566.89 1265.04 2565.68 1250.41 2576.35 1261.88 2587.03 1273.36 2616.53 1329.81 2614.39 1334.27 2612.25 1338.74 2573.94 1323.8 2566.89 1329.34 2559.84 1334.88 2577 1353.31 2572.09 1367.5 2557.39 1366.37 2538.31 1352.36 2517.09 1356.72Z" stroke="#2F528F" stroke-width="9.16667" stroke-miterlimit="8" fill="#9DC3E6" fill-rule="evenodd"/><path d="M2545.72 1276.15C2525.07 1273.05 2490.99 1275.21 2476.43 1275.58 2464.7 1285.26 2470.8 1317.84 2473.62 1326.3 2476.81 1344.33 2491.83 1340.27 2516.86 1357.5 2543.23 1345.1 2559.53 1349.68 2566.57 1331.37 2569.48 1304.41 2566.38 1279.24 2545.72 1276.15Z" stroke="#2F528F" stroke-width="9.16667" stroke-miterlimit="8" fill="#FFECD9" fill-rule="evenodd"/><path d="M2390 1201C2390 1113.42 2445.96 1070 2515 1070 2584.04 1070 2640 1128.65 2640 1201 2637.09 1294.67 2584.04 1332 2515 1332 2445.96 1332 2390 1288.58 2390 1201Z" stroke="#2F5597" stroke-width="13.75" stroke-miterlimit="8" fill="#FFECD9" fill-rule="evenodd"/><path d="M2478.5 1223C2478.5 1215.54 2481.41 1209.5 2485 1209.5 2488.59 1209.5 2491.5 1215.54 2491.5 1223 2491.5 1230.46 2488.59 1236.5 2485 1236.5 2481.41 1236.5 2478.5 1230.46 2478.5 1223Z" stroke="#2F528F" stroke-width="4.58333" stroke-miterlimit="8" fill="#2F5597" fill-rule="evenodd"/><path d="M2527.5 1223C2527.5 1215.54 2530.41 1209.5 2534 1209.5 2537.59 1209.5 2540.5 1215.54 2540.5 1223 2540.5 1230.46 2537.59 1236.5 2534 1236.5 2530.41 1236.5 2527.5 1230.46 2527.5 1223Z" stroke="#2F528F" stroke-width="4.58333" stroke-miterlimit="8" fill="#2F5597" fill-rule="evenodd"/><path d="M2480.5 1185.13C2480.56 1176.49 2490.93 1178.46 2490.49 1186.5" stroke="#2F528F" stroke-width="6.875" stroke-miterlimit="8" fill="none" fill-rule="evenodd"/><path d="M0 5.62844C0.0696011-3.00819 11.4691-1.03515 10.9864 7.00023" stroke="#2F528F" stroke-width="6.875" stroke-miterlimit="8" fill="none" fill-rule="evenodd" transform="matrix(-1 0 0 1 2539.5 1179.5)"/><path d="M2439 1263.2C2443.63 1259.9 2448.26 1256.6 2449.65 1256.9 2451.05 1257.2 2446.35 1265 2447.37 1265 2448.38 1265 2454.47 1256.98 2455.74 1256.9 2457.01 1256.83 2453.58 1264.7 2454.98 1264.55 2456.37 1264.4 2462.59 1256.15 2464.11 1256 2465.63 1255.85 2462.46 1263.13 2464.11 1263.65 2465.76 1264.18 2474 1259.15 2474 1259.15L2474 1259.15 2473.24 1258.7" stroke="#C55A11" stroke-width="2.29167" stroke-miterlimit="8" fill="none" fill-rule="evenodd"/><path d="M2548 1263.2C2552.63 1259.9 2557.26 1256.6 2558.65 1256.9 2560.05 1257.2 2555.35 1265 2556.37 1265 2557.38 1265 2563.47 1256.98 2564.74 1256.9 2566.01 1256.83 2562.58 1264.7 2563.98 1264.55 2565.37 1264.4 2571.59 1256.15 2573.11 1256 2574.63 1255.85 2571.46 1263.13 2573.11 1263.65 2574.76 1264.18 2583 1259.15 2583 1259.15L2583 1259.15 2582.24 1258.7" stroke="#C55A11" stroke-width="2.29167" stroke-miterlimit="8" fill="none" fill-rule="evenodd"/><path d="M2528.5 1282.5C2528.26 1301.2 2494.05 1303.48 2493.5 1283.27" stroke="#2F528F" stroke-width="6.875" stroke-miterlimit="8" fill="none" fill-rule="evenodd"/><path d="M2532.19 1281.8C2530.67 1284.64 2526.93 1282.58 2526.8 1278.37" stroke="#2F528F" stroke-width="6.875" stroke-miterlimit="8" fill="none" fill-rule="evenodd"/><path d="M2625.5 1152.35C2625.54 1152.47 2627.79 1163.82 2632.32 1161.07 2634.85 1159.53 2635.95 1156.23 2637.77 1153.8 2638.23 1152.35 2638.22 1150.62 2639.14 1149.45 2641.06 1146.98 2645.39 1144.07 2648.68 1143.63 2650.94 1143.33 2653.23 1143.63 2655.5 1143.63" stroke="#2F528F" stroke-width="4.58333" stroke-linecap="round" stroke-linejoin="round" stroke-miterlimit="10" fill="none" fill-rule="evenodd"/><path d="M2625.5 1161.84C2625.54 1161.97 2627.79 1173.95 2632.32 1171.05 2634.85 1169.42 2635.95 1165.93 2637.77 1163.38 2638.23 1161.84 2638.22 1160.02 2639.14 1158.78 2641.06 1156.18 2645.39 1153.1 2648.68 1152.64 2650.94 1152.32 2653.23 1152.64 2655.5 1152.64" stroke="#2F528F" stroke-width="4.58333" stroke-linecap="round" stroke-linejoin="round" stroke-miterlimit="10" fill="none" fill-rule="evenodd"/><path d="M2633.5 1164.84C2633.54 1164.97 2635.79 1176.95 2640.32 1174.05 2642.85 1172.42 2643.95 1168.93 2645.77 1166.38 2646.23 1164.84 2646.22 1163.02 2647.14 1161.78 2649.06 1159.18 2653.39 1156.1 2656.68 1155.64 2658.94 1155.32 2661.23 1155.64 2663.5 1155.64" stroke="#2F528F" stroke-width="4.58333" stroke-linecap="round" stroke-linejoin="round" stroke-miterlimit="10" fill="none" fill-rule="evenodd"/><path d="M2625.5 1147.35C2625.54 1147.47 2627.79 1158.82 2632.32 1156.07 2634.85 1154.53 2635.95 1151.23 2637.77 1148.8 2638.23 1147.35 2638.22 1145.62 2639.14 1144.45 2641.06 1141.98 2645.39 1139.07 2648.68 1138.63 2650.94 1138.33 2653.23 1138.63 2655.5 1138.63" stroke="#2F528F" stroke-width="6.875" stroke-linecap="round" stroke-linejoin="round" stroke-miterlimit="10" fill="none" fill-rule="evenodd"/><path d="M2375.09 1130.86C2375.09 1130.95 2373.4 1139.18 2379.06 1140.27 2382.22 1140.88 2384.54 1139.56 2387.29 1139.2 2388.27 1138.6 2388.87 1137.55 2390.24 1137.4 2393.11 1137.09 2398.63 1137.97 2402.19 1139.7 2404.64 1140.89 2406.9 1142.47 2409.26 1143.85" stroke="#2F528F" stroke-width="4.58333" stroke-linecap="round" stroke-linejoin="round" stroke-miterlimit="10" fill="none" fill-rule="evenodd"/><path d="M2371.3 1138.72C2371.3 1138.82 2369.61 1147.05 2375.27 1148.14 2378.43 1148.75 2380.76 1147.43 2383.5 1147.07 2384.48 1146.47 2385.09 1145.42 2386.46 1145.27 2389.32 1144.95 2394.84 1145.83 2398.41 1147.57 2400.85 1148.76 2403.11 1150.34 2405.47 1151.72" stroke="#2F528F" stroke-width="4.58333" stroke-linecap="round" stroke-linejoin="round" stroke-miterlimit="10" fill="none" fill-rule="evenodd"/><path d="M2392.19 1121.76C2392.07 1121.84 2380.41 1127.39 2384.41 1129.64 2386.64 1130.89 2390.44 1130.53 2393.46 1130.98 2395.12 1130.79 2396.97 1130.18 2398.45 1130.43 2401.53 1130.94 2405.65 1133 2406.88 1135.18 2407.72 1136.67 2407.93 1138.4 2408.45 1140.01" stroke="#2F528F" stroke-width="6.875" stroke-linecap="round" stroke-linejoin="round" stroke-miterlimit="10" fill="none" fill-rule="evenodd"/><path d="M2210.32 1093.84C2232.05 1079.3 2257.08 1071.74 2280.45 1060.69 2360.71 1212.48 2426.4 1360.5 2495.38 1515.49 2475.3 1533.51 2448.63 1537.58 2425.26 1548.63 2351.87 1397.86 2275 1248.73 2210.32 1093.84Z" stroke="#2F5597" stroke-width="13.75" stroke-miterlimit="8" fill="#FFFFFF" fill-rule="evenodd"/><path d="M2389.77 1453.53 2447.1 1426.44 2475.6 1486.75 2418.27 1513.85C2401.18 1488.43 2398.71 1480.13 2389.77 1453.53Z" fill="#F4B183" fill-rule="evenodd"/><path d="M2335.19 1344.47 2397.04 1315.24 2425.54 1375.56 2363.7 1404.79C2346.28 1379.52 2343.9 1371.18 2335.19 1344.47Z" fill="#F4B183" fill-rule="evenodd"/><path d="M2272.26 1217.39 2337.02 1186.78 2365.53 1247.1 2300.77 1277.71C2283.15 1252.54 2280.83 1244.17 2272.26 1217.39Z" fill="#F4B183" fill-rule="evenodd"/><path d="M2220.83 1095.57 2278.56 1068.29 2307.07 1128.61 2249.33 1155.89C2232.22 1130.48 2229.76 1122.18 2220.83 1095.57Z" fill="#F4B183" fill-rule="evenodd"/><path d="M2219.05 1109.76C2221.83 1105.74 2226.76 1105.35 2231.58 1102.06" stroke="#2F528F" stroke-width="6.875" stroke-miterlimit="8" fill="none" fill-rule="evenodd"/><path d="M2229.41 1131.69C2232.2 1127.67 2237.12 1127.28 2241.94 1123.99" stroke="#2F528F" stroke-width="6.875" stroke-miterlimit="8" fill="none" fill-rule="evenodd"/><path d="M2239.76 1153.8C2242.54 1149.78 2247.47 1149.4 2252.29 1146.11" stroke="#2F528F" stroke-width="6.875" stroke-miterlimit="8" fill="none" fill-rule="evenodd"/><path d="M2250.49 1176.5C2253.27 1172.48 2258.2 1172.1 2263.01 1168.81" stroke="#2F528F" stroke-width="6.875" stroke-miterlimit="8" fill="none" fill-rule="evenodd"/><path d="M2260.87 1198.48C2263.66 1194.46 2268.58 1194.07 2273.4 1190.78" stroke="#2F528F" stroke-width="6.875" stroke-miterlimit="8" fill="none" fill-rule="evenodd"/><path d="M2271.26 1220.45C2274.04 1216.44 2278.97 1216.05 2283.78 1212.76" stroke="#2F528F" stroke-width="6.875" stroke-miterlimit="8" fill="none" fill-rule="evenodd"/><path d="M2282.02 1243.22C2284.8 1239.21 2289.73 1238.82 2294.55 1235.53" stroke="#2F528F" stroke-width="6.875" stroke-miterlimit="8" fill="none" fill-rule="evenodd"/><path d="M2292.78 1265.99C2295.56 1261.98 2300.49 1261.59 2305.31 1258.3" stroke="#2F528F" stroke-width="6.875" stroke-miterlimit="8" fill="none" fill-rule="evenodd"/><path d="M2303.54 1288.76C2306.32 1284.75 2311.25 1284.36 2316.07 1281.07" stroke="#2F528F" stroke-width="6.875" stroke-miterlimit="8" fill="none" fill-rule="evenodd"/><path d="M2313.96 1310.81C2316.74 1306.79 2321.67 1306.41 2326.49 1303.12" stroke="#2F528F" stroke-width="6.875" stroke-miterlimit="8" fill="none" fill-rule="evenodd"/><path d="M2323.67 1332.3C2326.46 1328.29 2331.39 1327.9 2336.2 1324.61" stroke="#2F528F" stroke-width="6.875" stroke-miterlimit="8" fill="none" fill-rule="evenodd"/><path d="M2334.4 1355C2337.19 1350.99 2342.11 1350.6 2346.93 1347.31" stroke="#2F528F" stroke-width="6.875" stroke-miterlimit="8" fill="none" fill-rule="evenodd"/><path d="M2344.79 1376.98C2347.57 1372.96 2352.5 1372.58 2357.32 1369.29" stroke="#2F528F" stroke-width="6.875" stroke-miterlimit="8" fill="none" fill-rule="evenodd"/><path d="M2355.24 1399.1C2358.03 1395.08 2362.95 1394.69 2367.77 1391.4" stroke="#2F528F" stroke-width="6.875" stroke-miterlimit="8" fill="none" fill-rule="evenodd"/><path d="M2365.66 1421.14C2368.44 1417.13 2373.37 1416.74 2378.19 1413.45" stroke="#2F528F" stroke-width="6.875" stroke-miterlimit="8" fill="none" fill-rule="evenodd"/><path d="M2376.07 1441.03C2378.86 1437.01 2383.78 1436.63 2388.6 1433.34" stroke="#2F528F" stroke-width="6.875" stroke-miterlimit="8" fill="none" fill-rule="evenodd"/><path d="M2384.44 1460.89C2387.23 1456.88 2392.15 1456.49 2396.97 1453.2" stroke="#2F528F" stroke-width="6.875" stroke-miterlimit="8" fill="none" fill-rule="evenodd"/><path d="M2394.86 1482.94C2397.65 1478.92 2402.57 1478.54 2407.39 1475.25" stroke="#2F528F" stroke-width="6.875" stroke-miterlimit="8" fill="none" fill-rule="evenodd"/><path d="M2404.94 1504.26C2407.72 1500.24 2412.65 1499.86 2417.47 1496.57" stroke="#2F528F" stroke-width="6.875" stroke-miterlimit="8" fill="none" fill-rule="evenodd"/><path d="M2415.02 1525.58C2417.8 1521.57 2422.73 1521.18 2427.54 1517.89" stroke="#2F528F" stroke-width="6.875" stroke-miterlimit="8" fill="none" fill-rule="evenodd"/><path d="M2277.03 1084.32C2279.82 1080.3 2284.74 1079.91 2289.56 1076.62" stroke="#2F528F" stroke-width="6.875" stroke-miterlimit="8" fill="none" fill-rule="evenodd"/><path d="M2287.4 1106.25C2290.18 1102.23 2295.11 1101.84 2299.92 1098.55" stroke="#2F528F" stroke-width="6.875" stroke-miterlimit="8" fill="none" fill-rule="evenodd"/><path d="M2297.74 1128.36C2300.53 1124.34 2305.45 1123.96 2310.27 1120.67" stroke="#2F528F" stroke-width="6.875" stroke-miterlimit="8" fill="none" fill-rule="evenodd"/><path d="M2308.47 1151.06C2311.25 1147.04 2316.18 1146.66 2321 1143.37" stroke="#2F528F" stroke-width="6.875" stroke-miterlimit="8" fill="none" fill-rule="evenodd"/><path d="M2318.85 1173.03C2321.64 1169.02 2326.56 1168.63 2331.38 1165.34" stroke="#2F528F" stroke-width="6.875" stroke-miterlimit="8" fill="none" fill-rule="evenodd"/><path d="M2329.24 1195.01C2332.02 1190.99 2336.95 1190.61 2341.77 1187.32" stroke="#2F528F" stroke-width="6.875" stroke-miterlimit="8" fill="none" fill-rule="evenodd"/><path d="M2340 1217.78C2342.79 1213.76 2347.71 1213.38 2352.53 1210.09" stroke="#2F528F" stroke-width="6.875" stroke-miterlimit="8" fill="none" fill-rule="evenodd"/><path d="M2350.76 1240.55C2353.55 1236.53 2358.47 1236.15 2363.29 1232.86" stroke="#2F528F" stroke-width="6.875" stroke-miterlimit="8" fill="none" fill-rule="evenodd"/><path d="M2361.52 1263.32C2364.31 1259.31 2369.23 1258.92 2374.05 1255.63" stroke="#2F528F" stroke-width="6.875" stroke-miterlimit="8" fill="none" fill-rule="evenodd"/><path d="M2371.94 1285.37C2374.73 1281.35 2379.65 1280.97 2384.47 1277.68" stroke="#2F528F" stroke-width="6.875" stroke-miterlimit="8" fill="none" fill-rule="evenodd"/><path d="M2381.66 1306.86C2384.44 1302.84 2389.37 1302.46 2394.19 1299.17" stroke="#2F528F" stroke-width="6.875" stroke-miterlimit="8" fill="none" fill-rule="evenodd"/><path d="M2392.38 1329.56C2395.17 1325.55 2400.1 1325.16 2404.91 1321.87" stroke="#2F528F" stroke-width="6.875" stroke-miterlimit="8" fill="none" fill-rule="evenodd"/><path d="M2402.77 1351.54C2405.56 1347.52 2410.48 1347.13 2415.3 1343.85" stroke="#2F528F" stroke-width="6.875" stroke-miterlimit="8" fill="none" fill-rule="evenodd"/><path d="M2413.22 1373.65C2416.01 1369.64 2420.93 1369.25 2425.75 1365.96" stroke="#2F528F" stroke-width="6.875" stroke-miterlimit="8" fill="none" fill-rule="evenodd"/><path d="M2423.64 1395.7C2426.43 1391.68 2431.35 1391.3 2436.17 1388.01" stroke="#2F528F" stroke-width="6.875" stroke-miterlimit="8" fill="none" fill-rule="evenodd"/><path d="M2434.05 1415.59C2436.84 1411.57 2441.76 1411.19 2446.58 1407.9" stroke="#2F528F" stroke-width="6.875" stroke-miterlimit="8" fill="none" fill-rule="evenodd"/><path d="M2442.43 1435.45C2445.21 1431.43 2450.14 1431.05 2454.95 1427.76" stroke="#2F528F" stroke-width="6.875" stroke-miterlimit="8" fill="none" fill-rule="evenodd"/><path d="M2452.85 1457.5C2455.63 1453.48 2460.56 1453.09 2465.37 1449.8" stroke="#2F528F" stroke-width="6.875" stroke-miterlimit="8" fill="none" fill-rule="evenodd"/><path d="M2462.92 1478.82C2465.71 1474.8 2470.63 1474.42 2475.45 1471.13" stroke="#2F528F" stroke-width="6.875" stroke-miterlimit="8" fill="none" fill-rule="evenodd"/><path d="M2473 1500.14C2475.78 1496.12 2480.71 1495.74 2485.53 1492.45" stroke="#2F528F" stroke-width="6.875" stroke-miterlimit="8" fill="none" fill-rule="evenodd"/><path d="M2293.21 1338.21C2290.89 1332.42 2288.58 1326.63 2290.88 1321.21 2293.17 1315.8 2301.04 1308.45 2306.98 1305.72 2312.92 1302.99 2323.4 1303.42 2326.54 1304.82 2329.67 1306.22 2327.22 1311.62 2325.78 1314.09 2324.34 1316.57 2321.13 1318.12 2317.91 1319.68" stroke="#2F5597" stroke-width="11.4583" stroke-linecap="round" stroke-linejoin="round" stroke-miterlimit="10" fill="#FFECD9" fill-rule="evenodd"/><path d="M2300.33 1348.8C2298.96 1342.91 2297.58 1337.03 2300.46 1332.07 2303.33 1327.12 2311.66 1320.99 2317.57 1319.09 2323.48 1317.18 2333.19 1318.91 2335.93 1320.65 2338.66 1322.39 2335.65 1327.31 2333.97 1329.53 2332.3 1331.74 2329.08 1332.85 2325.87 1333.95" stroke="#2F5597" stroke-width="11.4583" stroke-linecap="round" stroke-linejoin="round" stroke-miterlimit="10" fill="#FFECD9" fill-rule="evenodd"/><path d="M2309.32 1367.11C2307.95 1361.22 2306.57 1355.33 2309.44 1350.38 2312.32 1345.43 2320.64 1339.3 2326.56 1337.39 2332.47 1335.49 2342.18 1337.22 2344.91 1338.96 2347.65 1340.7 2344.63 1345.62 2342.96 1347.83 2341.28 1350.05 2338.07 1351.15 2334.86 1352.26" stroke="#2F5597" stroke-width="11.4583" stroke-linecap="round" stroke-linejoin="round" stroke-miterlimit="10" fill="#FFECD9" fill-rule="evenodd"/><path d="M2336.06 1382.5C2308.05 1381.17 2315.77 1372.4 2317.11 1366.04 2318.44 1359.67 2326.84 1357.62 2332.08 1356.28 2337.32 1354.93 2346.04 1356.53 2348.53 1357.97 2351.02 1359.4 2348.45 1363.19 2347.01 1364.89 2345.57 1366.58 2342.72 1367.37 2339.88 1368.15" stroke="#2F5597" stroke-width="11.4583" stroke-linecap="round" stroke-linejoin="round" stroke-miterlimit="10" fill="#FFECD9" fill-rule="evenodd"/><path d="M2368.74 1149.71C2368.78 1149.8 2369.48 1158.17 2375.22 1157.61 2378.43 1157.3 2380.28 1155.38 2382.81 1154.26 2383.58 1153.4 2383.86 1152.22 2385.14 1151.69 2387.8 1150.58 2393.34 1149.85 2397.25 1150.51 2399.93 1150.96 2402.55 1151.83 2405.2 1152.48" stroke="#2F528F" stroke-width="4.58333" stroke-linecap="round" stroke-linejoin="round" stroke-miterlimit="10" fill="none" fill-rule="evenodd"/><path d="M2367.34 1158.33C2367.37 1158.42 2368.08 1166.79 2373.82 1166.23 2377.03 1165.92 2378.88 1163.99 2381.41 1162.87 2382.18 1162.02 2382.46 1160.84 2383.73 1160.31 2386.39 1159.19 2391.94 1158.47 2395.84 1159.13 2398.53 1159.58 2401.15 1160.44 2403.79 1161.1" stroke="#2F528F" stroke-width="4.58333" stroke-linecap="round" stroke-linejoin="round" stroke-miterlimit="10" fill="none" fill-rule="evenodd"/><path d="M2382.56 1136.14C2382.47 1136.24 2372.87 1144.87 2377.34 1145.9 2379.83 1146.47 2383.38 1145.05 2386.39 1144.62 2387.94 1143.97 2389.54 1142.86 2391.02 1142.68 2394.12 1142.29 2398.66 1143.1 2400.46 1144.84 2401.69 1146.03 2402.37 1147.63 2403.33 1149.03" stroke="#2F528F" stroke-width="6.875" stroke-linecap="round" stroke-linejoin="round" stroke-miterlimit="10" fill="none" fill-rule="evenodd"/><path d="M0 6.19731C0.0360838 6.27949 1.8804 14.2298 5.58858 12.3012 7.65997 11.224 8.5691 8.9101 10.0594 7.21462 10.4321 6.19731 10.4229 4.98646 11.1772 4.16267 12.7555 2.43884 16.3063 0.400038 19.0012 0.093401 20.8497-0.116951 22.727 0.093401 24.5898 0.093401" stroke="#2F528F" stroke-width="4.58333" stroke-linecap="round" stroke-linejoin="round" stroke-miterlimit="10" fill="none" fill-rule="evenodd" transform="matrix(-0.862196 0.506575 0.506575 0.862196 2654.56 1158.61)"/><path d="M0 6.19731C0.0360838 6.27949 1.8804 14.2298 5.58858 12.3012 7.65997 11.224 8.5691 8.9101 10.0594 7.21462 10.4321 6.19731 10.4229 4.98646 11.1772 4.16267 12.7555 2.43884 16.3063 0.400038 19.0012 0.093401 20.8497-0.116951 22.727 0.093401 24.5898 0.093401" stroke="#2F528F" stroke-width="6.875" stroke-linecap="round" stroke-linejoin="round" stroke-miterlimit="10" fill="none" fill-rule="evenodd" transform="matrix(-0.862196 0.506575 0.506575 0.862196 2657.15 1166.47)"/><path d="M0 6.80886C0.0328422 6.89915 1.71148 15.634 5.08653 13.5151 6.97183 12.3316 7.7993 9.78935 9.15576 7.92656 9.49491 6.80886 9.48658 5.47852 10.1731 4.57344 11.6096 2.6795 14.8415 0.439514 17.2942 0.102618 18.9767-0.128492 20.6853 0.102618 22.3807 0.102618" stroke="#2F528F" stroke-width="4.58333" stroke-linecap="round" stroke-linejoin="round" stroke-miterlimit="10" fill="none" fill-rule="evenodd" transform="matrix(-0.30881 0.951124 0.951124 0.30881 2640.67 1149.87)"/><path d="M2439.81 1412.8C2503.36 1407.57 2561.66 1409.31 2627.84 1412.8 2632.21 1458.68 2630.46 1502.83 2627.84 1547.84 2571.28 1553.94 2503.36 1551.33 2439.81 1547.84 2436.31 1501.08 2437.18 1461.3 2439.81 1412.8Z" stroke="#7F7F7F" stroke-width="9.16667" stroke-miterlimit="8" fill="#385723" fill-rule="evenodd"/><path d="M2441.5 1438.5C2504.55 1429.69 2563.91 1428.66 2620.5 1438.5" stroke="#FFFFFF" stroke-width="4.58333" stroke-miterlimit="8" fill="none" fill-rule="evenodd"/><path d="M2441.5 1474.5C2506.95 1462.14 2565.06 1465.67 2619.5 1474.5" stroke="#FFFFFF" stroke-width="4.58333" stroke-miterlimit="8" fill="none" fill-rule="evenodd"/><path d="M2476 1510.66C2488.26 1496.03 2500.52 1481.4 2502.75 1484.39 2504.98 1487.39 2490.2 1520.92 2489.38 1528.64 2488.56 1536.36 2492.08 1537.05 2497.83 1530.71 2503.58 1524.38 2518.36 1497.3 2523.88 1490.62 2529.39 1483.93 2531.5 1486.35 2530.92 1490.62 2530.33 1494.88 2521.53 1511.13 2520.36 1516.2 2519.18 1521.27 2519.06 1524.26 2523.88 1521.04 2528.69 1517.81 2545.7 1497.64 2549.22 1496.84 2552.74 1496.03 2544.41 1512.62 2545 1516.2 2545.58 1519.77 2546.41 1521.38 2552.74 1518.27 2559.08 1515.16 2578.32 1496.15 2583.02 1497.53 2585.48 1501.33 2577.27 1525.3 2580.9 1526.57 2585.48 1525.18 2597.92 1507.67 2604.84 1505.13 2620.21 1494.99 2618.16 1509.74 2614 1516.2" stroke="#FFFFFF" stroke-width="2.29167" stroke-miterlimit="8" fill="none" fill-rule="evenodd"/><path d="M2491.5 1470.5C2484.62 1462.22 2487.97 1436.59 2491.5 1415.5" stroke="#FFFFFF" stroke-width="4.58333" stroke-miterlimit="8" fill="none" fill-rule="evenodd"/><path d="M2614.5 1361.65C2609.84 1356.25 2609.17 1349.82 2606.51 1344.23 2603.85 1338.63 2599.19 1334.88 2598.52 1328.09 2597.86 1321.3 2604.35 1309.07 2602.52 1303.48 2600.69 1297.88 2592.2 1294.77 2587.54 1294.53 2582.88 1294.28 2577.72 1295.77 2574.55 1301.98 2571.39 1308.2 2569.06 1322.74 2568.56 1331.82 2568.06 1340.89 2570.73 1351.83 2571.56 1356.43 2572.39 1361.03 2573.56 1359.42 2573.56 1359.42L2596.52 1403.5" stroke="#2F528F" stroke-width="11.4583" stroke-linecap="round" stroke-linejoin="round" stroke-miterlimit="10" fill="#FFECD9" fill-rule="evenodd"/><path d="M2608.66 1347.5C2619.32 1351.72 2629.98 1355.93 2635.76 1363.26 2641.55 1370.58 2644.09 1379.56 2643.39 1391.45 2642.68 1403.34 2637.88 1425.03 2631.53 1434.57 2625.18 1444.11 2613.18 1446.04 2605.28 1448.67 2597.37 1451.29 2584.11 1450.33 2584.11 1450.33L2584.11 1450.33C2581 1447.98 2568.58 1440.38 2565.48 1436.23 2562.37 1432.08 2563.36 1427.52 2565.48 1425.45 2567.59 1423.38 2575.07 1423.79 2578.18 1423.79 2581.28 1423.79 2582.69 1424.62 2584.11 1425.45" stroke="#2F5597" stroke-width="11.4583" stroke-linecap="round" stroke-linejoin="round" stroke-miterlimit="10" fill="#FFECD9" fill-rule="evenodd"/><path d="M2614.5 1428.8C2605.34 1431.83 2596.17 1434.87 2587.01 1432.84 2577.84 1430.82 2564.78 1422.9 2559.52 1416.66 2554.26 1410.42 2553.58 1398.96 2555.44 1395.42 2557.31 1391.88 2566.47 1394.07 2570.72 1395.42 2574.96 1396.77 2577.93 1400.14 2580.9 1403.51" stroke="#2F5597" stroke-width="11.4583" stroke-linecap="round" stroke-linejoin="round" stroke-miterlimit="10" fill="#FFECD9" fill-rule="evenodd"/><path d="M2612.5 1411.68C2603.34 1414.79 2594.17 1417.9 2585.01 1415.83 2575.84 1413.76 2562.78 1405.63 2557.52 1399.24 2552.26 1392.85 2551.58 1381.09 2553.44 1377.47 2555.31 1373.84 2564.47 1376.08 2568.72 1377.47 2572.96 1378.85 2575.93 1382.3 2578.9 1385.76" stroke="#2F5597" stroke-width="11.4583" stroke-linecap="round" stroke-linejoin="round" stroke-miterlimit="10" fill="#FFECD9" fill-rule="evenodd"/><path d="M2611.5 1392.79C2600.35 1399.98 2592.86 1399.13 2584.04 1396.95 2575.22 1394.76 2562.95 1385.72 2558.58 1379.66 2554.22 1373.6 2550.1 1368.64 2557.84 1360.59 2565.59 1352.54 2568.86 1362.6 2573.1 1363.98 2577.33 1365.37 2582.09 1366.51 2585.06 1369.97" stroke="#2F5597" stroke-width="11.4583" stroke-linecap="round" stroke-linejoin="round" stroke-miterlimit="10" fill="#FFECD9" fill-rule="evenodd"/><path d="M2421.96 1137.54C2442.14 1140.7 2492.29 1151.33 2526.31 1151.96 2560.33 1152.6 2608.45 1145 2626.09 1141.33 2643.74 1137.66 2632.49 1134.57 2632.19 1129.95 2631.88 1125.32 2627.21 1117.81 2624.25 1113.57 2621.3 1109.34 2624.1 1113.5 2619.02 1100 2613.94 1086.5 2610.62 1051.34 2593.77 1032.56 2576.92 1013.78 2559.09 998.65 2517.93 997.092 2476.77 995.534 2458.57 1014.05 2441.76 1029.74 2424.95 1045.43 2417.44 1073.26 2417.06 1091.23 2412.87 1100.09 2415.94 1096.54 2412.82 1101.86 2409.7 1107.17 2400 1118.56 2398.35 1123.11 2396.7 1127.67 2401.27 1130.58 2405.2 1132.98 2409.14 1135.39 2401.77 1134.38 2421.96 1137.54Z" stroke="#7F6000" stroke-width="13.75" stroke-linecap="round" stroke-linejoin="round" stroke-miterlimit="10" fill="#FFCC00" fill-rule="evenodd"/><path d="M2464.44 1068.11C2460.92 1077.85 2457.4 1087.6 2459.5 1091.13 2461.6 1094.66 2477.05 1089.28 2477.05 1089.28L2477.05 1089.28 2477.05 1089.28" stroke="#2F528F" stroke-width="4.58333" stroke-linecap="round" stroke-linejoin="round" stroke-miterlimit="10" fill="none" fill-rule="evenodd"/><path d="M2500.12 1072.54C2492.85 1076.31 2485.58 1080.07 2485.27 1083.96 2484.95 1087.86 2491.6 1091.87 2498.24 1095.89" stroke="#2F528F" stroke-width="4.58333" stroke-linecap="round" stroke-linejoin="round" stroke-miterlimit="10" fill="none" fill-rule="evenodd"/><path d="M2507.85 1077.53C2519.35 1076.75 2530.85 1075.96 2533.72 1079.05 2536.59 1082.15 2530.83 1089.13 2525.08 1096.1" stroke="#2F528F" stroke-width="4.58333" stroke-linecap="round" stroke-linejoin="round" stroke-miterlimit="10" fill="none" fill-rule="evenodd"/><path d="M2550.43 1073.29C2559.02 1072.09 2567.62 1070.89 2570.91 1073 2574.19 1075.1 2573.17 1083.67 2570.15 1085.93 2567.12 1088.19 2559.92 1087.37 2552.73 1086.55" stroke="#2F528F" stroke-width="4.58333" stroke-linecap="round" stroke-linejoin="round" stroke-miterlimit="10" fill="none" fill-rule="evenodd"/><path d="M2542.09 1081.69 2564.54 1080.37C2571.07 1080.14 2576.18 1080.22 2581.28 1080.3" stroke="#2F528F" stroke-width="4.58333" stroke-linecap="round" stroke-linejoin="round" stroke-miterlimit="10" fill="none" fill-rule="evenodd"/><path d="M2557.43 1071.56C2556.95 1081.32 2556.48 1091.08 2555.42 1096.13 2554.37 1101.18 2552.73 1101.52 2551.09 1101.86" stroke="#2F528F" stroke-width="4.58333" stroke-linecap="round" stroke-linejoin="round" stroke-miterlimit="10" fill="none" fill-rule="evenodd"/><path d="M2557.91 1092.48C2560.14 1090.86 2571.16 1090.18 2573.48 1091.66 2575.8 1093.15 2574.06 1099.78 2571.82 1101.4 2569.59 1103.02 2562.12 1102.33 2560.05 1101.38 2557.99 1100.44 2555.67 1094.1 2557.91 1092.48Z" stroke="#2F528F" stroke-width="4.58333" stroke-linecap="round" stroke-linejoin="round" stroke-miterlimit="10" fill="none" fill-rule="evenodd"/><path d="M2477.97 1122.78 2468.87 1122.46 2459.83 1121.39 2451.31 1119.59 2443.42 1117.43 2436.22 1114.9 2429.82 1112.18 2424.33 1109.53 2419.96 1107.1 2423.98 1099.89 2428.13 1102.21 2433.23 1104.67 2439.2 1107.21 2445.88 1109.55 2453.25 1111.57 2461.17 1113.24 2469.5 1114.23 2478.26 1114.54ZM2478.36 1111.79 2469.71 1111.48 2461.62 1110.52 2453.9 1108.9 2446.7 1106.92 2440.19 1104.64 2434.37 1102.16 2429.4 1099.77 2425.33 1097.49 2426.67 1095.09 2430.67 1097.32 2435.5 1099.66 2441.19 1102.08 2447.52 1104.3 2454.55 1106.22 2462.06 1107.81 2469.92 1108.74 2478.45 1109.04Z" fill="#2F528F"/><path d="M2615.99 1112.86 2607.98 1117.65 2599.44 1121.4 2590.89 1124.06 2582.6 1125.69 2574.79 1126.57 2567.49 1126.75 2561 1126.41 2555.72 1125.76 2556.73 1117.57 2561.72 1118.19 2567.6 1118.5 2574.23 1118.33 2581.34 1117.53 2588.86 1116.06 2596.54 1113.66 2604.19 1110.3 2611.75 1105.78ZM2610.34 1103.42 2602.92 1107.85 2595.58 1111.08 2588.18 1113.39 2580.92 1114.81 2574.04 1115.59 2567.64 1115.75 2561.97 1115.45 2557.07 1114.84 2557.41 1112.11 2562.21 1112.71 2567.68 1112.99 2573.85 1112.84 2580.5 1112.09 2587.51 1110.72 2594.61 1108.5 2601.66 1105.41 2608.93 1101.06Z" fill="#2F528F"/><path d="M2560 1140.99C2565.67 1132.99 2571.33 1125 2573.33 1125 2575.33 1125 2570.33 1140.54 2572 1140.99 2573.67 1141.43 2581.22 1128.22 2583.33 1127.66 2585.44 1127.11 2582.22 1137.77 2584.67 1137.66 2587.11 1137.55 2595.67 1127.22 2598 1127 2600.33 1126.78 2596.89 1136.1 2598.67 1136.33 2600.44 1136.55 2606.33 1128.78 2608.67 1128.33 2611 1127.89 2611.11 1133.55 2612.67 1133.66 2614.22 1133.77 2618 1129 2618 1129L2618 1129" stroke="#7F6000" stroke-width="2.29167" stroke-miterlimit="8" fill="none" fill-rule="evenodd"/><text fill="#FFFFFF" font-family="Meiryo,Meiryo_MSFontService,sans-serif" font-weight="700" font-size="92" transform="matrix(1 0 0 1 112.84 1473)">掘削状況</text><text fill="#FFFFFF" font-family="Meiryo,Meiryo_MSFontService,sans-serif" font-weight="700" font-size="92" transform="matrix(1 0 0 1 479.507 1473)">3D</text><text fill="#FFFFFF" font-family="Meiryo,Meiryo_MSFontService,sans-serif" font-weight="700" font-size="92" transform="matrix(1 0 0 1 613.569 1473)">管理アプリ</text><text fill="#FFFFFF" font-family="Meiryo,Meiryo_MSFontService,sans-serif" font-weight="700" font-size="165" transform="matrix(1 0 0 1 1236.9 1473)">ちかデジ</text><path d="M2521.09 1643.57 2514.03 1662.96 2528.29 1662.96ZM2564.18 1640.21 2564.18 1653.47 2571.98 1653.47C2577.05 1653.47 2580.21 1653.26 2581.47 1652.83 2582.73 1652.4 2583.71 1651.67 2584.42 1650.62 2585.14 1649.58 2585.49 1648.27 2585.49 1646.7 2585.49 1644.94 2585.02 1643.52 2584.09 1642.44 2583.15 1641.36 2581.82 1640.68 2580.11 1640.39 2579.26 1640.27 2576.69 1640.21 2572.41 1640.21ZM2659.63 1631.37 2670.18 1631.37 2670.18 1651.94 2690.85 1651.94 2690.85 1631.37 2701.4 1631.37 2701.4 1683.63 2690.85 1683.63 2690.85 1660.78 2670.18 1660.78 2670.18 1683.63 2659.63 1683.63ZM2553.63 1631.37 2575.83 1631.37C2581.42 1631.37 2585.48 1631.84 2588.01 1632.78 2590.54 1633.72 2592.56 1635.39 2594.08 1637.79 2595.6 1640.19 2596.37 1642.94 2596.37 1646.02 2596.37 1649.95 2595.21 1653.18 2592.91 1655.74 2590.6 1658.29 2587.16 1659.9 2582.57 1660.57 2584.85 1661.9 2586.74 1663.36 2588.22 1664.95 2589.71 1666.54 2591.71 1669.37 2594.23 1673.44L2600.61 1683.63 2587.99 1683.63 2580.36 1672.26C2577.65 1668.2 2575.8 1665.64 2574.8 1664.58 2573.8 1663.52 2572.75 1662.8 2571.63 1662.4 2570.51 1662.01 2568.74 1661.82 2566.32 1661.82L2564.18 1661.82 2564.18 1683.63 2553.63 1683.63ZM2515.63 1631.37 2526.79 1631.37 2547.71 1683.63 2536.24 1683.63 2531.67 1671.76 2510.79 1671.76 2506.47 1683.63 2495.28 1683.63ZM2452.59 1631.37 2491.34 1631.37 2491.34 1640.21 2463.14 1640.21 2463.14 1651.8 2489.38 1651.8 2489.38 1660.6 2463.14 1660.6 2463.14 1674.83 2492.34 1674.83 2492.34 1683.63 2452.59 1683.63ZM2629.19 1630.48C2635.58 1630.48 2640.78 1632.37 2644.77 1636.15 2647.14 1638.38 2648.93 1641.59 2650.11 1645.78L2639.67 1648.27C2639.05 1645.56 2637.76 1643.42 2635.8 1641.85 2633.84 1640.29 2631.46 1639.5 2628.66 1639.5 2624.78 1639.5 2621.64 1640.89 2619.23 1643.67 2616.82 1646.45 2615.61 1650.96 2615.61 1657.18 2615.61 1663.79 2616.8 1668.49 2619.17 1671.3 2621.55 1674.1 2624.64 1675.5 2628.44 1675.5 2631.25 1675.5 2633.66 1674.61 2635.68 1672.83 2637.7 1671.05 2639.15 1668.24 2640.03 1664.42L2650.26 1667.66C2648.69 1673.36 2646.08 1677.6 2642.43 1680.37 2638.78 1683.14 2634.16 1684.52 2628.55 1684.52 2621.61 1684.52 2615.91 1682.15 2611.44 1677.41 2606.97 1672.67 2604.74 1666.19 2604.74 1657.97 2604.74 1649.27 2606.98 1642.51 2611.48 1637.7 2615.97 1632.89 2621.87 1630.48 2629.19 1630.48ZM2421.88 1630.48C2428.44 1630.48 2433.37 1631.92 2436.69 1634.8 2440 1637.67 2441.74 1641.51 2441.91 1646.31L2431.36 1646.77C2430.91 1644.09 2429.94 1642.16 2428.45 1640.98 2426.97 1639.8 2424.74 1639.22 2421.77 1639.22 2418.71 1639.22 2416.31 1639.85 2414.57 1641.11 2413.45 1641.91 2412.9 1642.99 2412.9 1644.35 2412.9 1645.58 2413.42 1646.64 2414.46 1647.52 2415.79 1648.64 2419.03 1649.8 2424.16 1651.01 2429.29 1652.23 2433.09 1653.48 2435.55 1654.78 2438.01 1656.07 2439.93 1657.84 2441.32 1660.09 2442.71 1662.33 2443.41 1665.11 2443.41 1668.41 2443.41 1671.4 2442.58 1674.21 2440.91 1676.82 2439.25 1679.44 2436.9 1681.38 2433.85 1682.65 2430.81 1683.92 2427.02 1684.56 2422.48 1684.56 2415.88 1684.56 2410.8 1683.03 2407.26 1679.98 2403.72 1676.92 2401.61 1672.47 2400.92 1666.63L2411.18 1665.63C2411.8 1669.07 2413.06 1671.61 2414.94 1673.22 2416.83 1674.84 2419.38 1675.65 2422.59 1675.65 2425.99 1675.65 2428.55 1674.93 2430.27 1673.49 2431.99 1672.05 2432.86 1670.37 2432.86 1668.44 2432.86 1667.21 2432.49 1666.16 2431.77 1665.29 2431.04 1664.42 2429.78 1663.67 2427.97 1663.03 2426.74 1662.6 2423.92 1661.84 2419.53 1660.75 2413.87 1659.34 2409.9 1657.62 2407.62 1655.58 2404.41 1652.7 2402.81 1649.2 2402.81 1645.06 2402.81 1642.4 2403.56 1639.91 2405.07 1637.59 2406.58 1635.28 2408.75 1633.51 2411.59 1632.3 2414.43 1631.09 2417.86 1630.48 2421.88 1630.48Z" stroke="#FFFFFF" stroke-linejoin="round" stroke-miterlimit="10" stroke-opacity="0.501961" fill="#123177" fill-rule="evenodd"/><text fill="#000000" fill-opacity="0" font-family="Arial,Arial_MSFontService,sans-serif" font-size="54.0728" x="2400.92" y="1677.8">SEARCH</text><path d="M2146.1 1606.79C2157.47 1606.79 2166.36 1609.17 2172.76 1613.94 2179.15 1618.71 2183.27 1625.31 2185.1 1633.72L2166.72 1637.16C2165.43 1632.66 2163.01 1629.11 2159.44 1626.51 2155.88 1623.9 2151.43 1622.6 2146.1 1622.6 2138.02 1622.6 2131.59 1625.16 2126.82 1630.29 2122.05 1635.41 2119.66 1643.02 2119.66 1653.1 2119.66 1663.97 2122.08 1672.13 2126.91 1677.57 2131.74 1683.01 2138.08 1685.72 2145.91 1685.72 2149.79 1685.72 2153.67 1684.96 2157.57 1683.44 2161.46 1681.92 2164.81 1680.08 2167.6 1677.91L2167.6 1666.29 2146.41 1666.29 2146.41 1650.85 2186.29 1650.85 2186.29 1687.35C2182.41 1691.1 2176.8 1694.4 2169.44 1697.26 2162.09 1700.11 2154.64 1701.54 2147.1 1701.54 2137.52 1701.54 2129.16 1699.53 2122.04 1695.51 2114.91 1691.48 2109.56 1685.73 2105.97 1678.26 2102.39 1670.78 2100.6 1662.64 2100.6 1653.85 2100.6 1644.31 2102.6 1635.83 2106.6 1628.41 2110.6 1620.99 2116.45 1615.31 2124.16 1611.35 2130.04 1608.31 2137.35 1606.79 2146.1 1606.79Z" stroke="#FFFFFF" stroke-width="5" stroke-linejoin="round" stroke-miterlimit="10" stroke-opacity="0.501961" fill="#D72510" fill-rule="evenodd"/><text fill="#000000" fill-opacity="0" font-family="Arial,Arial_MSFontService,sans-serif" font-size="94.75" x="2100.6" y="1689.69">G</text><path d="M2329.22 1622.6C2321.6 1622.6 2315.45 1625.21 2310.79 1630.44 2306.12 1635.67 2303.79 1643.56 2303.79 1654.1 2303.79 1664.47 2306.18 1672.34 2310.97 1677.69 2315.77 1683.05 2321.85 1685.72 2329.22 1685.72 2336.6 1685.72 2342.65 1683.07 2347.38 1677.76 2352.11 1672.44 2354.47 1664.47 2354.47 1653.85 2354.47 1643.35 2352.17 1635.52 2347.57 1630.35 2342.96 1625.18 2336.85 1622.6 2329.22 1622.6ZM2203.47 1608.35 2271.41 1608.35 2271.41 1623.85 2221.97 1623.85 2221.97 1644.16 2267.97 1644.16 2267.97 1659.6 2221.97 1659.6 2221.97 1684.54 2273.16 1684.54 2273.16 1699.97 2203.47 1699.97ZM2329.04 1606.79C2342.54 1606.79 2353.34 1610.97 2361.44 1619.35 2369.55 1627.72 2373.6 1639.37 2373.6 1654.29 2373.6 1669.08 2369.58 1680.65 2361.54 1689.01 2353.49 1697.36 2342.74 1701.54 2329.29 1701.54 2315.66 1701.54 2304.83 1697.38 2296.79 1689.07 2288.74 1680.76 2284.72 1669.31 2284.72 1654.72 2284.72 1645.39 2286.12 1637.56 2288.91 1631.22 2290.99 1626.56 2293.84 1622.37 2297.44 1618.66 2301.05 1614.95 2304.99 1612.2 2309.29 1610.41 2314.99 1607.99 2321.58 1606.79 2329.04 1606.79Z" stroke="#FFFFFF" stroke-width="5" stroke-linejoin="round" stroke-miterlimit="10" stroke-opacity="0.501961" fill="#123177" fill-rule="evenodd"/><text fill="#000000" fill-opacity="0" font-family="Arial,Arial_MSFontService,sans-serif" font-size="94.75" x="2203.47" y="1689.69">EO</text><text fill="#333333" font-family="Calibri,Calibri_MSFontService,sans-serif" font-weight="400" font-size="83" transform="matrix(1 0 0 1 1603.68 1680)">Produced by</text></g></svg>